<svg width="294" height="54" viewBox="0 0 294 54" fill="none" xmlns="http://www.w3.org/2000/svg">
<path d="M43.5962 39.825V15.2795H59.3206V19.0069H48.0427V25.6706H58.242V29.398H48.0427V39.825H43.5962Z" fill="#305CCD"/>
<path d="M63.1798 39.825V21.4159H67.5184V39.825H63.1798ZM65.3611 18.8032C64.674 18.8032 64.0827 18.5754 63.5873 18.12C63.0919 17.6566 62.8442 17.1013 62.8442 16.4541C62.8442 15.7989 63.0919 15.2436 63.5873 14.7882C64.0827 14.3247 64.674 14.093 65.3611 14.093C66.0562 14.093 66.6475 14.3247 67.1349 14.7882C67.6303 15.2436 67.878 15.7989 67.878 16.4541C67.878 17.1013 67.6303 17.6566 67.1349 18.12C66.6475 18.5754 66.0562 18.8032 65.3611 18.8032Z" fill="#305CCD"/>
<path d="M76.3185 29.0384V39.825H71.9799V21.4159H76.1267V24.544H76.3424C76.7659 23.5133 77.4411 22.6943 78.3679 22.0871C79.3028 21.4798 80.4573 21.1762 81.8316 21.1762C83.102 21.1762 84.2087 21.4479 85.1515 21.9912C86.1023 22.5345 86.8374 23.3215 87.3567 24.3523C87.8841 25.383 88.1438 26.6334 88.1358 28.1036V39.825H83.7972V28.7747C83.7972 27.5443 83.4776 26.5815 82.8384 25.8863C82.2071 25.1912 81.3322 24.8436 80.2136 24.8436C79.4546 24.8436 78.7794 25.0114 78.1881 25.347C77.6049 25.6746 77.1454 26.15 76.8099 26.7732C76.4823 27.3965 76.3185 28.1515 76.3185 29.0384Z" fill="#305CCD"/>
<path d="M97.8437 40.1965C96.6771 40.1965 95.6264 39.9888 94.6916 39.5733C93.7648 39.1498 93.0297 38.5266 92.4864 37.7036C91.951 36.8807 91.6833 35.8659 91.6833 34.6594C91.6833 33.6207 91.8751 32.7618 92.2586 32.0826C92.6422 31.4035 93.1655 30.8602 93.8287 30.4527C94.4919 30.0452 95.2389 29.7375 96.0699 29.5298C96.9088 29.3141 97.7758 29.1583 98.6707 29.0624C99.7493 28.9505 100.624 28.8507 101.295 28.7628C101.967 28.6669 102.454 28.5231 102.758 28.3313C103.069 28.1315 103.225 27.8239 103.225 27.4084V27.3365C103.225 26.4337 102.957 25.7345 102.422 25.2391C101.887 24.7438 101.116 24.4961 100.109 24.4961C99.0462 24.4961 98.2032 24.7278 97.58 25.1912C96.9648 25.6546 96.5493 26.2019 96.3336 26.8332L92.2826 26.2579C92.6022 25.1393 93.1296 24.2044 93.8646 23.4534C94.5997 22.6943 95.4986 22.127 96.5613 21.7515C97.624 21.368 98.7985 21.1762 100.085 21.1762C100.972 21.1762 101.855 21.2801 102.734 21.4878C103.613 21.6956 104.416 22.0391 105.143 22.5185C105.87 22.9899 106.453 23.6331 106.892 24.4481C107.34 25.2631 107.564 26.2818 107.564 27.5043V39.825H103.393V37.2961H103.249C102.985 37.8075 102.614 38.2869 102.134 38.7344C101.663 39.1738 101.068 39.5294 100.349 39.801C99.6375 40.0647 98.8025 40.1965 97.8437 40.1965ZM98.9703 37.0085C99.8412 37.0085 100.596 36.8367 101.235 36.4931C101.875 36.1416 102.366 35.6782 102.71 35.1029C103.061 34.5276 103.237 33.9004 103.237 33.2212V31.0519C103.101 31.1638 102.869 31.2676 102.542 31.3635C102.222 31.4594 101.863 31.5433 101.463 31.6152C101.064 31.6871 100.668 31.751 100.277 31.807C99.8851 31.8629 99.5456 31.9108 99.2579 31.9508C98.6107 32.0387 98.0315 32.1825 97.5201 32.3823C97.0087 32.582 96.6052 32.8617 96.3096 33.2212C96.014 33.5728 95.8661 34.0282 95.8661 34.5875C95.8661 35.3865 96.1578 35.9898 96.7411 36.3973C97.3243 36.8048 98.0674 37.0085 98.9703 37.0085Z" fill="#305CCD"/>
<path d="M116.265 29.0384V39.825H111.926V21.4159H116.073V24.544H116.289C116.712 23.5133 117.387 22.6943 118.314 22.0871C119.249 21.4798 120.404 21.1762 121.778 21.1762C123.048 21.1762 124.155 21.4479 125.098 21.9912C126.049 22.5345 126.784 23.3215 127.303 24.3523C127.83 25.383 128.09 26.6334 128.082 28.1036V39.825H123.743V28.7747C123.743 27.5443 123.424 26.5815 122.785 25.8863C122.153 25.1912 121.279 24.8436 120.16 24.8436C119.401 24.8436 118.726 25.0114 118.134 25.347C117.551 25.6746 117.092 26.15 116.756 26.7732C116.429 27.3965 116.265 28.1515 116.265 29.0384Z" fill="#305CCD"/>
<path d="M140.523 40.1845C138.685 40.1845 137.107 39.781 135.788 38.9741C134.478 38.1671 133.467 37.0524 132.756 35.6302C132.053 34.2 131.702 32.554 131.702 30.6924C131.702 28.8227 132.061 27.1727 132.78 25.7425C133.499 24.3043 134.514 23.1857 135.824 22.3867C137.143 21.5797 138.701 21.1762 140.499 21.1762C141.993 21.1762 143.315 21.4519 144.466 22.0032C145.624 22.5465 146.547 23.3175 147.234 24.3163C147.921 25.3071 148.313 26.4656 148.409 27.792H144.262C144.094 26.9051 143.695 26.166 143.063 25.5747C142.44 24.9755 141.605 24.6758 140.559 24.6758C139.672 24.6758 138.893 24.9156 138.221 25.395C137.55 25.8664 137.027 26.5455 136.651 27.4324C136.284 28.3193 136.1 29.382 136.1 30.6205C136.1 31.8749 136.284 32.9535 136.651 33.8564C137.019 34.7513 137.534 35.4424 138.197 35.9298C138.869 36.4092 139.656 36.6489 140.559 36.6489C141.198 36.6489 141.769 36.5291 142.272 36.2894C142.784 36.0417 143.211 35.6861 143.555 35.2227C143.898 34.7593 144.134 34.196 144.262 33.5328H148.409C148.305 34.8352 147.921 35.9898 147.258 36.9965C146.595 37.9953 145.692 38.7783 144.55 39.3456C143.407 39.9049 142.065 40.1845 140.523 40.1845Z" fill="#305CCD"/>
<path d="M160.121 40.1845C158.275 40.1845 156.681 39.801 155.339 39.034C154.005 38.2589 152.978 37.1643 152.259 35.7501C151.54 34.3278 151.18 32.6539 151.18 30.7283C151.18 28.8347 151.54 27.1727 152.259 25.7425C152.986 24.3043 154.001 23.1857 155.303 22.3867C156.606 21.5797 158.136 21.1762 159.893 21.1762C161.028 21.1762 162.099 21.36 163.105 21.7275C164.12 22.0871 165.015 22.6464 165.79 23.4054C166.573 24.1645 167.188 25.1313 167.636 26.3058C168.083 27.4724 168.307 28.8626 168.307 30.4766V31.807L155.483 31.6991V28.7747L164.148 28.8826C164.14 28.0516 163.96 27.3126 163.609 26.6654C163.257 26.0102 162.766 25.4948 162.135 25.1193C161.511 24.7438 160.784 24.556 159.953 24.556C159.066 24.556 158.287 24.7717 157.616 25.2032C156.945 25.6267 156.422 26.186 156.046 26.8811C155.679 27.5682 155.491 28.3233 155.483 29.1463V31.6991C155.483 32.7698 155.679 33.6886 156.07 34.4557C156.462 35.2147 157.009 35.798 157.712 36.2055C158.415 36.605 159.238 36.8048 160.181 36.8048C160.812 36.8048 161.384 36.7169 161.895 36.5411C162.406 36.3573 162.85 36.0896 163.225 35.7381C163.601 35.3865 163.884 34.9511 164.076 34.4317L168.127 34.8871C167.872 35.9578 167.384 36.8926 166.665 37.6917C165.954 38.4827 165.043 39.0979 163.932 39.5374C162.822 39.9688 161.551 40.1845 160.121 40.1845Z" fill="#305CCD"/>
<path d="M180.541 39.825V15.2795H184.987V26.5575H185.287L194.863 15.2795H200.292L190.8 26.2938L200.376 39.825H195.031L187.708 29.3021L184.987 32.5141V39.825H180.541Z" fill="#133139"/>
<path d="M208.487 40.1965C207.32 40.1965 206.27 39.9888 205.335 39.5733C204.408 39.1498 203.673 38.5266 203.13 37.7036C202.594 36.8807 202.327 35.8659 202.327 34.6594C202.327 33.6207 202.518 32.7618 202.902 32.0826C203.285 31.4035 203.809 30.8602 204.472 30.4527C205.135 30.0452 205.882 29.7375 206.713 29.5298C207.552 29.3141 208.419 29.1583 209.314 29.0624C210.393 28.9505 211.268 28.8507 211.939 28.7628C212.61 28.6669 213.097 28.5231 213.401 28.3313C213.712 28.1315 213.868 27.8239 213.868 27.4084V27.3365C213.868 26.4337 213.601 25.7345 213.065 25.2391C212.53 24.7438 211.759 24.4961 210.752 24.4961C209.689 24.4961 208.847 24.7278 208.223 25.1912C207.608 25.6546 207.193 26.2019 206.977 26.8332L202.926 26.2579C203.246 25.1393 203.773 24.2044 204.508 23.4534C205.243 22.6943 206.142 22.127 207.205 21.7515C208.267 21.368 209.442 21.1762 210.728 21.1762C211.615 21.1762 212.498 21.2801 213.377 21.4878C214.256 21.6956 215.059 22.0391 215.786 22.5185C216.513 22.9899 217.096 23.6331 217.536 24.4481C217.983 25.2631 218.207 26.2818 218.207 27.5043V39.825H214.036V37.2961H213.892C213.629 37.8075 213.257 38.2869 212.778 38.7344C212.306 39.1738 211.711 39.5294 210.992 39.801C210.281 40.0647 209.446 40.1965 208.487 40.1965ZM209.614 37.0085C210.485 37.0085 211.24 36.8367 211.879 36.4931C212.518 36.1416 213.009 35.6782 213.353 35.1029C213.704 34.5276 213.88 33.9004 213.88 33.2212V31.0519C213.744 31.1638 213.513 31.2676 213.185 31.3635C212.866 31.4594 212.506 31.5433 212.106 31.6152C211.707 31.6871 211.311 31.751 210.92 31.807C210.528 31.8629 210.189 31.9108 209.901 31.9508C209.254 32.0387 208.675 32.1825 208.163 32.3823C207.652 32.582 207.249 32.8617 206.953 33.2212C206.657 33.5728 206.509 34.0282 206.509 34.5875C206.509 35.3865 206.801 35.9898 207.384 36.3973C207.968 36.8048 208.711 37.0085 209.614 37.0085Z" fill="#133139"/>
<path d="M222.569 39.825V21.4159H226.776V24.4841H226.968C227.304 23.4214 227.879 22.6024 228.694 22.0271C229.517 21.4439 230.456 21.1522 231.51 21.1522C231.75 21.1522 232.018 21.1642 232.313 21.1882C232.617 21.2042 232.869 21.2321 233.068 21.2721V25.2631C232.885 25.1992 232.593 25.1433 232.193 25.0953C231.802 25.0394 231.422 25.0114 231.055 25.0114C230.264 25.0114 229.553 25.1832 228.922 25.5268C228.298 25.8624 227.807 26.3298 227.447 26.929C227.088 27.5283 226.908 28.2194 226.908 29.0025V39.825H222.569Z" fill="#133139"/>
<path d="M240.919 40.1965C239.752 40.1965 238.701 39.9888 237.767 39.5733C236.84 39.1498 236.105 38.5266 235.561 37.7036C235.026 36.8807 234.758 35.8659 234.758 34.6594C234.758 33.6207 234.95 32.7618 235.334 32.0826C235.717 31.4035 236.24 30.8602 236.904 30.4527C237.567 30.0452 238.314 29.7375 239.145 29.5298C239.984 29.3141 240.851 29.1583 241.746 29.0624C242.824 28.9505 243.699 28.8507 244.37 28.7628C245.042 28.6669 245.529 28.5231 245.833 28.3313C246.144 28.1315 246.3 27.8239 246.3 27.4084V27.3365C246.3 26.4337 246.032 25.7345 245.497 25.2391C244.962 24.7438 244.191 24.4961 243.184 24.4961C242.121 24.4961 241.278 24.7278 240.655 25.1912C240.04 25.6546 239.624 26.2019 239.409 26.8332L235.358 26.2579C235.677 25.1393 236.205 24.2044 236.94 23.4534C237.675 22.6943 238.574 22.127 239.636 21.7515C240.699 21.368 241.873 21.1762 243.16 21.1762C244.047 21.1762 244.93 21.2801 245.809 21.4878C246.687 21.6956 247.49 22.0391 248.218 22.5185C248.945 22.9899 249.528 23.6331 249.967 24.4481C250.415 25.2631 250.639 26.2818 250.639 27.5043V39.825H246.468V37.2961H246.324C246.06 37.8075 245.689 38.2869 245.209 38.7344C244.738 39.1738 244.143 39.5294 243.424 39.801C242.712 40.0647 241.877 40.1965 240.919 40.1965ZM242.045 37.0085C242.916 37.0085 243.671 36.8367 244.31 36.4931C244.95 36.1416 245.441 35.6782 245.785 35.1029C246.136 34.5276 246.312 33.9004 246.312 33.2212V31.0519C246.176 31.1638 245.944 31.2676 245.617 31.3635C245.297 31.4594 244.938 31.5433 244.538 31.6152C244.139 31.6871 243.743 31.751 243.352 31.807C242.96 31.8629 242.621 31.9108 242.333 31.9508C241.686 32.0387 241.106 32.1825 240.595 32.3823C240.084 32.582 239.68 32.8617 239.385 33.2212C239.089 33.5728 238.941 34.0282 238.941 34.5875C238.941 35.3865 239.233 35.9898 239.816 36.3973C240.399 36.8048 241.142 37.0085 242.045 37.0085Z" fill="#133139"/>
<path d="M261.833 40.1486C260.386 40.1486 259.092 39.7771 257.949 39.034C256.807 38.2909 255.904 37.2122 255.241 35.798C254.578 34.3838 254.246 32.6659 254.246 30.6444C254.246 28.599 254.582 26.8731 255.253 25.4669C255.932 24.0526 256.847 22.986 257.997 22.2668C259.148 21.5398 260.43 21.1762 261.845 21.1762C262.923 21.1762 263.81 21.36 264.505 21.7275C265.2 22.0871 265.752 22.5225 266.159 23.0339C266.567 23.5373 266.882 24.0127 267.106 24.4601H267.286V15.2795H271.636V39.825H267.37V36.9246H267.106C266.882 37.3721 266.559 37.8475 266.135 38.3508C265.712 38.8462 265.152 39.2697 264.457 39.6213C263.762 39.9728 262.887 40.1486 261.833 40.1486ZM263.043 36.589C263.962 36.589 264.745 36.3413 265.392 35.8459C266.039 35.3426 266.531 34.6434 266.866 33.7486C267.202 32.8537 267.37 31.811 267.37 30.6205C267.37 29.4299 267.202 28.3952 266.866 27.5163C266.539 26.6374 266.051 25.9543 265.404 25.4669C264.765 24.9795 263.978 24.7358 263.043 24.7358C262.076 24.7358 261.269 24.9875 260.622 25.4908C259.975 25.9942 259.488 26.6893 259.16 27.5762C258.832 28.4631 258.669 29.4779 258.669 30.6205C258.669 31.771 258.832 32.7977 259.16 33.7006C259.496 34.5955 259.987 35.3026 260.634 35.822C261.289 36.3333 262.092 36.589 263.043 36.589Z" fill="#133139"/>
<path d="M284.29 40.1845C282.492 40.1845 280.934 39.789 279.615 38.998C278.297 38.207 277.274 37.1004 276.547 35.6782C275.828 34.2559 275.469 32.594 275.469 30.6924C275.469 28.7907 275.828 27.1248 276.547 25.6946C277.274 24.2644 278.297 23.1537 279.615 22.3627C280.934 21.5717 282.492 21.1762 284.29 21.1762C286.087 21.1762 287.645 21.5717 288.964 22.3627C290.282 23.1537 291.301 24.2644 292.02 25.6946C292.747 27.1248 293.111 28.7907 293.111 30.6924C293.111 32.594 292.747 34.2559 292.02 35.6782C291.301 37.1004 290.282 38.207 288.964 38.998C287.645 39.789 286.087 40.1845 284.29 40.1845ZM284.314 36.7089C285.288 36.7089 286.103 36.4412 286.759 35.9059C287.414 35.3626 287.901 34.6355 288.221 33.7246C288.548 32.8137 288.712 31.799 288.712 30.6804C288.712 29.5538 288.548 28.535 288.221 27.6242C287.901 26.7053 287.414 25.9742 286.759 25.4309C286.103 24.8876 285.288 24.6159 284.314 24.6159C283.315 24.6159 282.484 24.8876 281.821 25.4309C281.166 25.9742 280.674 26.7053 280.347 27.6242C280.027 28.535 279.867 29.5538 279.867 30.6804C279.867 31.799 280.027 32.8137 280.347 33.7246C280.674 34.6355 281.166 35.3626 281.821 35.9059C282.484 36.4412 283.315 36.7089 284.314 36.7089Z" fill="#133139"/>
<path d="M55.2168 40.0345C54.9151 40.0345 54.6191 40.0885 54.336 40.1937L48.8988 42.2327C48.7228 42.2988 48.5441 42.3602 48.3653 42.4151C48.397 42.2466 48.4137 42.0734 48.4137 41.8966C48.4137 40.3566 47.1605 39.1035 45.6206 39.1035H42.0762L41.9095 39.0364C40.0772 38.3037 38.1854 37.7953 36.2544 37.5105C35.9751 34.6261 33.9287 32.2259 31.0527 31.5621L24.2068 29.983V27.9133C26.4627 26.2123 27.931 23.5198 27.931 20.4828C29.9848 20.4828 31.6551 18.8125 31.6551 16.7586C31.6551 15.8229 31.2966 14.9766 30.7241 14.3212V8.37838C30.7241 6.10386 29.0826 4.20455 26.9226 3.80235C26.7532 2.88341 26.3119 2.03803 25.6369 1.36303C24.7571 0.484138 23.5886 0 22.3447 0H13.9654C9.85864 0 6.51716 3.34148 6.51716 7.44828V14.3212C5.94457 14.9766 5.58612 15.8229 5.58612 16.7586C5.58612 18.8125 7.2564 20.4828 9.31026 20.4828C9.31026 23.5198 10.7785 26.2123 13.0344 27.9133V29.983L6.1885 31.563C3.09281 32.2771 0.930951 34.9948 0.932813 38.1147L0.00177877 53.0112C-0.0140488 53.2673 0.0762616 53.5196 0.252227 53.7067C0.428193 53.8939 0.673986 54 0.930951 54H36.3103C36.5672 54 36.813 53.8939 36.989 53.7067C37.165 53.5196 37.2553 53.2673 37.2394 53.0112L37.016 49.4407L40.4748 50.7377C41.3062 51.0486 42.1776 51.2069 43.0649 51.2069C44.2818 51.2069 45.4903 50.9025 46.5619 50.3252L56.1627 45.1552C57.1254 44.6366 57.7241 43.6348 57.7241 42.5418C57.7241 41.1592 56.5994 40.0345 55.2168 40.0345ZM34.3644 37.3112C34.0823 37.2917 33.8002 37.274 33.5172 37.2637V36.3103C33.5172 35.7964 33.1001 35.3793 32.5861 35.3793H26.9999C26.486 35.3793 26.0689 35.7964 26.0689 36.3103V49.3448C26.0689 49.8588 26.486 50.2759 26.9999 50.2759H28.862V52.1379H22.2358L20.5227 38.4303L21.99 36.4733L22.6948 37.0375C22.8652 37.1743 23.071 37.2414 23.2758 37.2414C23.5327 37.2414 23.7888 37.1352 23.9722 36.9295L27.7252 32.7072L30.6337 33.3785C32.5805 33.8273 34.0143 35.37 34.3644 37.3112ZM27.931 48.4138V37.2414H31.6551V48.4138H27.931ZM13.89 31.6971L16.7911 32.8571L14.0744 35.0311L11.5838 32.2296L13.89 31.6971ZM23.3512 31.6971L25.6574 32.2296L23.1668 35.0311L20.4501 32.8571L23.3512 31.6971ZM18.6206 33.7779L20.5348 35.3095L19.0861 37.2414H18.1551L16.7064 35.3095L18.6206 33.7779ZM18.5117 39.1035H18.7305L20.3598 52.1379H16.8824L18.5117 39.1035ZM27.931 18.6207V14.8966C28.9579 14.8966 29.793 15.7317 29.793 16.7586C29.793 17.7856 28.9579 18.6207 27.931 18.6207ZM7.44819 16.7586C7.44819 15.7317 8.28333 14.8966 9.31026 14.8966V18.6207C8.28333 18.6207 7.44819 17.7856 7.44819 16.7586ZM9.31026 13.0345C8.98719 13.0345 8.67902 13.0885 8.37923 13.1667V7.44828C8.37923 4.36748 10.8846 1.86207 13.9654 1.86207H22.3447C23.8847 1.86207 25.1378 3.11524 25.1378 4.65517C25.1378 5.1691 25.555 5.58621 26.0689 5.58621C27.6079 5.58621 28.8611 6.83938 28.8611 8.37931V13.1676C28.5622 13.0885 28.254 13.0345 27.931 13.0345C27.931 12.7077 27.7596 12.4042 27.4794 12.2366L22.8242 9.44348C22.3969 9.18745 21.8457 9.31221 21.5701 9.72559C20.5776 11.2143 18.9157 12.1034 17.1263 12.1034H10.2413C9.72737 12.1034 9.31026 12.5206 9.31026 13.0345ZM11.1723 20.4828V13.9655H17.1263C19.2407 13.9655 21.221 13.0457 22.5803 11.4685L26.0689 13.5614V20.4828C26.0689 24.5896 22.7274 27.931 18.6206 27.931C14.5138 27.931 11.1723 24.5896 11.1723 20.4828ZM18.6206 29.7931C19.9445 29.7931 21.2033 29.511 22.3447 29.0101V30.0929L18.6206 31.5826L14.8965 30.0929V29.0101C16.0379 29.511 17.2967 29.7931 18.6206 29.7931ZM2.79302 38.1724C2.79302 35.8672 4.36181 33.8962 6.60747 33.3776L9.51602 32.7063L13.269 36.9286C13.4534 37.1352 13.7085 37.2414 13.9654 37.2414C14.1703 37.2414 14.3751 37.1743 14.5464 37.0375L15.2512 36.4733L16.7185 38.4303L15.0054 52.1379H8.37923V41.8966H6.51716V52.1379H1.92157L2.79302 38.1724ZM30.7241 52.1379V50.2759H32.5861C33.1001 50.2759 33.5172 49.8588 33.5172 49.3448V48.4641C34.0553 48.5181 34.5869 48.6168 35.1083 48.7629L35.3196 52.1379H30.7241ZM55.2801 43.5156L45.6793 48.6857C44.2948 49.4305 42.6031 49.5459 41.1293 48.9929L36.5188 47.264C35.5496 46.9009 34.5432 46.6774 33.5172 46.5927V39.1472C36.1613 39.2524 38.7505 39.7785 41.2178 40.7653L41.5501 40.8985C41.6609 40.9432 41.7782 40.9655 41.8965 40.9655H45.6206C46.1336 40.9655 46.5516 41.3836 46.5516 41.8966C46.5516 42.4096 46.1336 42.8276 45.6206 42.8276H40.0344V44.6897H45.6206C46.9688 44.6897 48.2917 44.4495 49.5533 43.9765L54.9896 41.9375C55.3993 41.7848 55.862 42.1088 55.862 42.5418C55.862 42.9496 55.6385 43.3229 55.2801 43.5156Z" fill="#133139"/>
</svg>
